<svg xmlns="http://www.w3.org/2000/svg" viewBox="0 0 13.21 23.11"><title>資產 24</title><g id="圖層_2" data-name="圖層 2"><g id="圖層_19" data-name="圖層 19"><rect x="9.91" y="19.81" width="3.3" height="3.3" fill="#fff100"/><rect x="9.91" y="16.51" width="3.3" height="3.3" fill="#fff100"/><rect x="9.91" y="13.21" width="3.3" height="3.3" fill="#fff100"/><rect x="9.91" y="9.91" width="3.3" height="3.3" fill="#fff100"/><rect x="6.6" y="16.51" width="3.3" height="3.3" fill="#fff100"/><rect x="3.3" y="13.21" width="3.3" height="3.3" fill="#fff100"/><rect x="6.6" y="9.91" width="3.3" height="3.3" fill="#fff100"/><rect x="3.3" y="9.91" width="3.3" height="3.3" fill="#fff100"/><rect y="9.91" width="3.3" height="3.3" fill="#fff100"/><rect x="9.91" y="6.6" width="3.3" height="3.3" fill="#fff100"/><rect x="6.6" y="13.21" width="3.3" height="3.3" fill="#fff100"/><rect x="9.91" y="6.6" width="3.3" height="3.3" fill="#fff100"/><rect x="9.91" y="3.3" width="3.3" height="3.3" fill="#fff100"/><rect x="3.3" y="6.6" width="3.3" height="3.3" fill="#fff100"/><rect x="6.6" y="3.3" width="3.3" height="3.3" fill="#fff100"/><rect x="9.91" width="3.3" height="3.3" fill="#fff100"/><rect x="6.6" y="6.6" width="3.3" height="3.3" fill="#fff100"/></g></g></svg>